<?xml version="1.0" encoding="UTF-8"?>
<svg width="32" height="32" viewBox="0 0 32 32" fill="none" xmlns="http://www.w3.org/2000/svg">
  <rect x="8" y="8" width="16" height="14" fill="#80C2FF"/>
  <line x1="13" y1="12" x2="13" y2="18" stroke="white" stroke-width="2" stroke-linecap="round"/>
  <line x1="19" y1="12" x2="19" y2="18" stroke="white" stroke-width="2" stroke-linecap="round"/>
  <path d="M8 13.3333H24M8 13.3333V24C8 25.4728 9.19391 26.6667 10.6667 26.6667H21.3333C22.8061 26.6667 24 25.4728 24 24V13.3333M8 13.3333V8C8 6.52724 9.19391 5.33333 10.6667 5.33333H21.3333C22.8061 5.33333 24 6.52724 24 8V13.3333M12 16.6667V20M16 16.6667V20M20 16.6667V20" stroke="#333333" stroke-width="2" stroke-linecap="round"/>
</svg> 