<svg width="48" height="24" viewBox="0 0 48 24" fill="none" xmlns="http://www.w3.org/2000/svg">
<path d="M41.29 4.14004L41.22 7.93004C41.21 8.45004 41.54 9.14004 41.96 9.45004L44.44 11.33C46.03 12.53 45.77 14 43.87 14.6L40.64 15.61C40.1 15.78 39.53 16.37 39.39 16.92L38.62 19.86C38.01 22.18 36.49 22.41 35.23 20.37L33.47 17.52C33.15 17 32.39 16.61 31.79 16.64L28.45 16.81C26.06 16.93 25.38 15.55 26.94 13.73L28.92 11.43C29.29 11 29.46 10.2 29.29 9.66004L28.27 6.42004C27.68 4.52004 28.74 3.47004 30.63 4.09004L33.58 5.06004C34.08 5.22004 34.83 5.11004 35.25 4.80004L38.33 2.58004C40 1.39004 41.33 2.09004 41.29 4.14004Z" fill="black"/>
<path d="M45.4399 20.4702L42.4099 17.4402C42.1199 17.1502 41.6399 17.1502 41.3499 17.4402C41.0599 17.7302 41.0599 18.2102 41.3499 18.5002L44.3799 21.5302C44.5299 21.6802 44.7199 21.7502 44.9099 21.7502C45.0999 21.7502 45.2899 21.6802 45.4399 21.5302C45.7299 21.2402 45.7299 20.7602 45.4399 20.4702Z" fill="black"/>
<path d="M21.9102 22L18.8802 18.97M17.2902 4.13999L17.2202 7.92997C17.2102 8.44997 17.5403 9.13999 17.9603 9.44999L20.4403 11.33C22.0303 12.53 21.7703 14 19.8703 14.6L16.6403 15.61C16.1003 15.78 15.5303 16.37 15.3903 16.92L14.6203 19.86C14.0103 22.18 12.4902 22.41 11.2302 20.37L9.47024 17.52C9.15024 17 8.39024 16.61 7.79024 16.64L4.45028 16.81C2.06028 16.93 1.38027 15.55 2.94027 13.73L4.92025 11.43C5.29025 11 5.46024 10.2 5.29024 9.65998L4.28029 6.42997C3.69029 4.52997 4.75028 3.47999 6.64028 4.09999L9.59029 5.06999C10.0903 5.22999 10.8403 5.11998 11.2603 4.80998L14.3403 2.58998C16.0003 1.38998 17.3302 2.08999 17.2902 4.13999Z" stroke="#666666" stroke-width="1.5" stroke-linecap="round" stroke-linejoin="round"/>
</svg>
