<svg width="48" height="24" viewBox="0 0 48 24" fill="none" xmlns="http://www.w3.org/2000/svg">
<path d="M41 2H31C28.24 2 26 4.23 26 6.98V12.96V13.96C26 16.71 28.24 18.94 31 18.94H32.5C32.77 18.94 33.13 19.12 33.3 19.34L34.8 21.33C35.46 22.21 36.54 22.21 37.2 21.33L38.7 19.34C38.89 19.09 39.19 18.94 39.5 18.94H41C43.76 18.94 46 16.71 46 13.96V6.98C46 4.23 43.76 2 41 2ZM37 13.75H31C30.59 13.75 30.25 13.41 30.25 13C30.25 12.59 30.59 12.25 31 12.25H37C37.41 12.25 37.75 12.59 37.75 13C37.75 13.41 37.41 13.75 37 13.75ZM41 8.75H31C30.59 8.75 30.25 8.41 30.25 8C30.25 7.59 30.59 7.25 31 7.25H41C41.41 7.25 41.75 7.59 41.75 8C41.75 8.41 41.41 8.75 41 8.75Z" fill="black"/>
<path d="M7 8H17M7 13H13M8.5 19H8C4 19 2 18 2 13V8C2 4 4 2 8 2H16C20 2 22 4 22 8V13C22 17 20 19 16 19H15.5C15.19 19 14.89 19.15 14.7 19.4L13.2 21.4C12.54 22.28 11.46 22.28 10.8 21.4L9.3 19.4C9.14 19.18 8.77 19 8.5 19Z" stroke="#666666" stroke-width="1.5" stroke-linecap="round" stroke-linejoin="round"/>
</svg>
