<svg width="48" height="24" viewBox="0 0 48 24" fill="none" xmlns="http://www.w3.org/2000/svg">
<path d="M37.9931 3.19968L37.9934 3.19986L43.7533 7.2298C43.7533 7.22982 43.7533 7.22984 43.7534 7.22986C44.2226 7.55833 44.6668 8.09689 44.9943 8.72408C45.3217 9.35129 45.51 10.0244 45.51 10.6002V17.3802C45.51 19.654 43.6638 21.5002 41.39 21.5002H30.61C28.3375 21.5002 26.49 19.6454 26.49 17.3702V10.4702C26.49 9.93574 26.6604 9.29667 26.9586 8.69105C27.2566 8.0857 27.6611 7.55706 28.0875 7.22443L28.0876 7.22435L33.0962 3.31542C33.0965 3.31525 33.0967 3.31507 33.0969 3.3149C34.4338 2.27962 36.6028 2.2256 37.9931 3.19968ZM36 19.2502C36.6861 19.2502 37.25 18.6863 37.25 18.0002V15.0002C37.25 14.314 36.6861 13.7502 36 13.7502C35.3138 13.7502 34.75 14.314 34.75 15.0002V18.0002C34.75 18.6863 35.3138 19.2502 36 19.2502Z" fill="black" stroke="black"/>
<path d="M12 17.9902V14.9902M9.02 2.84016L3.63 7.04016C2.73 7.74016 2 9.23016 2 10.3602V17.7702C2 20.0902 3.89 21.9902 6.21 21.9902H17.79C20.11 21.9902 22 20.0902 22 17.7802V10.5002C22 9.29016 21.19 7.74016 20.2 7.05016L14.02 2.72016C12.62 1.74016 10.37 1.79016 9.02 2.84016Z" stroke="#666666" stroke-width="1.5" stroke-linecap="round" stroke-linejoin="round"/>
</svg>
