<?xml version="1.0" encoding="UTF-8"?>
<svg id="_레이어_1" data-name="레이어_1" xmlns="http://www.w3.org/2000/svg" version="1.1" viewBox="0 0 24 24">
  <!-- Generator: Adobe Illustrator 29.2.1, SVG Export Plug-In . SVG Version: 2.1.0 Build 116)  -->
  <defs>
    <style>
      .st0, .st1 {
        fill: none;
        stroke: #666;
        stroke-linecap: round;
        stroke-linejoin: round;
        stroke-width: 1.5px;
      }

      .st1 {
        opacity: .6;
      }
    </style>
  </defs>
  <path class="st1" d="M-18.2,8h10M-18.2,13h6M-16.7,19h-.5c-4,0-6-1-6-6v-5c0-4,2-6,6-6h8C-5.2,2-3.2,4-3.2,8v5c0,4-2,6-6,6h-.5c-.3,0-.6.1-.8.4l-1.5,2c-.7.9-1.7.9-2.4,0l-1.5-2c-.2-.2-.5-.4-.8-.4Z"/>
  <path d="M48.2,2h-10c-2.8,0-5,2.2-5,5v7c0,2.7,2.2,5,5,5h1.5c.3,0,.6.2.8.4l1.5,2c.7.9,1.7.9,2.4,0l1.5-2c.2-.2.5-.4.8-.4h1.5c2.8,0,5-2.2,5-5v-7c0-2.8-2.2-5-5-5ZM44.2,13.8h-6c-.4,0-.8-.3-.8-.8s.3-.7.8-.7h6c.4,0,.8.3.8.7s-.3.8-.8.8ZM48.2,8.8h-10c-.4,0-.8-.3-.8-.8s.3-.8.8-.8h10c.4,0,.8.3.8.8s-.3.8-.8.8Z"/>
  <g>
    <path d="M-4.6,30.3h-4.7c-1,0-1.9.8-1.9,1.9v.9c0,1,.8,1.9,1.9,1.9h4.7c1,0,1.9-.8,1.9-1.9v-.9c0-1-.8-1.9-1.9-1.9Z"/>
    <path d="M-1.7,33.2c0,1.6-1.3,2.9-2.9,2.9h-4.7c-1.6,0-2.9-1.3-2.9-2.9s-.6-.9-1.1-.7c-1.4.8-2.4,2.2-2.4,3.9v9.4c0,2.5,2,4.5,4.5,4.5H-2.7c2.5,0,4.5-2,4.5-4.5v-9.4c0-1.7-1-3.2-2.4-3.9-.5-.3-1.1,0-1.1.7ZM-3.6,41.1l-4,4c-.2.1-.3.2-.5.2s-.4,0-.5-.2l-1.5-1.5c-.3-.3-.3-.8,0-1.1.3-.3.8-.3,1.1,0l1,1,3.5-3.5c.3-.3.8-.3,1.1,0s.3.8,0,1.1Z"/>
  </g>
  <path class="st0" d="M-31.6,39.6v-3M-34.6,24.5l-5.4,4.2c-.9.7-1.6,2.2-1.6,3.3v7.4c0,2.3,1.9,4.2,4.2,4.2h11.6c2.3,0,4.2-1.9,4.2-4.2v-7.3c0-1.2-.8-2.8-1.8-3.5l-6.2-4.3c-1.4-1-3.7-.9-5,.1Z"/>
  <g>
    <path d="M17.4,4.3v3.8c0,.5.2,1.2.7,1.5l2.5,1.9c1.6,1.2,1.3,2.7-.6,3.3l-3.2,1c-.5.2-1.1.8-1.2,1.3l-.8,2.9c-.6,2.3-2.1,2.5-3.4.5l-1.8-2.9c-.3-.5-1.1-.9-1.7-.9l-3.3.2c-2.4.1-3.1-1.3-1.5-3.1l2-2.3c.4-.4.5-1.2.4-1.8l-1-3.2c-.6-1.9.5-3,2.4-2.3l3,1c.5.2,1.2,0,1.7-.3l3.1-2.2c1.7-1.2,3-.5,3,1.6Z"/>
    <path d="M21.6,20.6l-3-3c-.3-.3-.8-.3-1.1,0-.3.3-.3.8,0,1.1l3,3c.1.2.3.2.5.2s.4,0,.5-.2c.3-.3.3-.8,0-1.1Z"/>
  </g>
</svg>