<?xml version="1.0" encoding="UTF-8"?>
<svg id="_레이어_1" data-name="레이어_1" xmlns="http://www.w3.org/2000/svg" version="1.1" viewBox="0 0 24 24">
  <!-- Generator: Adobe Illustrator 29.2.1, SVG Export Plug-In . SVG Version: 2.1.0 Build 116)  -->
  <defs>
    <style>
      .st0 {
        fill: none;
        stroke: #000;
        stroke-linecap: round;
        stroke-linejoin: round;
        stroke-width: 1.5px;
      }
    </style>
  </defs>
  <path class="st0" d="M-27.1,8h10M-27.1,13h6M-25.6,19h-.5c-4,0-6-1-6-6v-5c0-4,2-6,6-6h8c4,0,6,2,6,6v5c0,4-2,6-6,6h-.5c-.3,0-.6.1-.8.4l-1.5,2c-.7.9-1.7.9-2.4,0l-1.5-2c-.2-.2-.5-.4-.8-.4Z"/>
  <path d="M17,2H7c-2.8,0-5,2.2-5,5v7c0,2.7,2.2,5,5,5h1.5c.3,0,.6.2.8.4l1.5,2c.7.9,1.7.9,2.4,0l1.5-2c.2-.2.5-.4.8-.4h1.5c2.8,0,5-2.2,5-5v-7c0-2.8-2.2-5-5-5ZM13,13.8h-6c-.4,0-.8-.3-.8-.8s.3-.7.8-.7h6c.4,0,.8.3.8.7s-.3.8-.8.8ZM17,8.8H7c-.4,0-.8-.3-.8-.8s.3-.8.8-.8h10c.4,0,.8.3.8.8s-.3.8-.8.8Z"/>
</svg>