<svg width="48" height="24" viewBox="0 0 48 24" fill="none" xmlns="http://www.w3.org/2000/svg">
<path d="M38.35 2H33.65C32.61 2 31.76 2.84 31.76 3.88V4.82C31.76 5.86 32.6 6.7 33.64 6.7H38.35C39.39 6.7 40.23 5.86 40.23 4.82V3.88C40.24 2.84 39.39 2 38.35 2Z" fill="black"/>
<path d="M41.24 4.81998C41.24 6.40998 39.94 7.70998 38.35 7.70998H33.65C32.06 7.70998 30.76 6.40998 30.76 4.81998C30.76 4.25998 30.16 3.90998 29.66 4.16998C28.25 4.91998 27.29 6.40998 27.29 8.11998V17.53C27.29 19.99 29.3 22 31.76 22H40.24C42.7 22 44.71 19.99 44.71 17.53V8.11998C44.71 6.40998 43.75 4.91998 42.34 4.16998C41.84 3.90998 41.24 4.25998 41.24 4.81998ZM39.34 12.73L35.34 16.73C35.19 16.88 35 16.95 34.81 16.95C34.62 16.95 34.43 16.88 34.28 16.73L32.78 15.23C32.49 14.94 32.49 14.46 32.78 14.17C33.07 13.88 33.55 13.88 33.84 14.17L34.81 15.14L38.28 11.67C38.57 11.38 39.05 11.38 39.34 11.67C39.63 11.96 39.63 12.44 39.34 12.73Z" fill="black"/>
<path d="M9.31 14.7L10.81 16.2L14.81 12.2M16 4.02C19.33 4.2 21 5.43 21 10V16C21 20 20 22 15 22H9C4 22 3 20 3 16V10C3 5.44 4.67 4.2 8 4.02M10 6H14C16 6 16 5 16 4C16 2 15 2 14 2H10C9 2 8 2 8 4C8 6 9 6 10 6Z" stroke="#666666" stroke-width="1.5" stroke-miterlimit="10" stroke-linecap="round" stroke-linejoin="round"/>
</svg>
