<?xml version="1.0" encoding="UTF-8"?>
<svg id="_레이어_1" data-name="레이어_1" xmlns="http://www.w3.org/2000/svg" xmlns:xlink="http://www.w3.org/1999/xlink" version="1.1" viewBox="0 0 24 24">
  <!-- Generator: Adobe Illustrator 29.2.1, SVG Export Plug-In . SVG Version: 2.1.0 Build 116)  -->
  <defs>
    <style>
      .st0, .st1, .st2 {
        fill: #fae100;
      }

      .st1, .st2, .st3 {
        stroke-linecap: round;
        stroke-linejoin: round;
        stroke-width: 1.5px;
      }

      .st1, .st3 {
        stroke: #000;
      }

      .st4 {
        fill: #303030;
      }

      .st2 {
        stroke: #fff;
      }

      .st3 {
        fill: none;
      }
    </style>
  </defs>
  <path class="st1" d="M65.8,22c5.5,0,10-4.5,10-10s-4.5-10-10-10-10,4.5-10,10,4.5,10,10,10Z"/>
  <path class="st2" d="M-190.4,19.7c5.5,0,10-4.5,10-10S-184.9-.3-190.4-.3s-10,4.5-10,10,4.5,10,10,10Z"/>
  <path class="st3" d="M63.8,16v-8h3c1.1,0,2,.9,2,2s-.9,2-2,2h-3"/>
  <image width="876" height="464" transform="translate(-239.7 -57.6) rotate(0) scale(.2)" xlink:href="../../../스크린샷 2025-06-11 오후 5.30.04.png"/>
  <g>
    <path class="st0" d="M-190.4,14c2.2,0,4-1.8,4-4s-1.8-4-4-4-4,1.8-4,4,1.8,4,4,4Z"/>
    <path class="st4" d="M-190.4,14.3c-2.4,0-4.3-1.9-4.3-4.3s1.9-4.3,4.3-4.3,4.3,1.9,4.3,4.3-1.9,4.3-4.3,4.3ZM-190.4,6.3c-2,0-3.7,1.7-3.7,3.7s1.7,3.7,3.7,3.7,3.7-1.7,3.7-3.7-1.7-3.7-3.7-3.7Z"/>
  </g>
  <path d="M-191.2,11.9c-.2,0-.3-.1-.3-.3v-3.2c0-.2.1-.3.3-.3h1.2c.6,0,1.1.5,1.1,1.1s-.5,1.1-1.1,1.1h-.9v1.3c0,.2-.1.3-.3.3ZM-190.9,9.7h.9c.3,0,.5-.2.5-.5s-.2-.5-.5-.5h-.9v1Z"/>
  <path class="st3" d="M7,8h10M7,13h6M8.5,19h-.5c-4,0-6-1-6-6v-5C2,4,4,2,8,2h8c4,0,6,2,6,6v5c0,4-2,6-6,6h-.5c-.3,0-.6.1-.8.4l-1.5,2c-.7.9-1.7.9-2.4,0l-1.5-2c-.2-.2-.5-.4-.8-.4Z"/>
</svg>