<svg width="9" height="12" viewBox="0 0 9 12" fill="none" xmlns="http://www.w3.org/2000/svg">
<path d="M-0.000957442 11.9745V-7.95174e-05H4.21023C5.08891 -7.95174e-05 5.88721 0.123149 6.60515 0.369605C7.3338 0.605346 7.91244 1.00718 8.34106 1.5751C8.7804 2.14302 9.00006 2.91989 9.00006 3.90572C9.00006 4.84868 8.7804 5.62556 8.34106 6.23634C7.91244 6.83641 7.33916 7.2811 6.62122 7.57042C5.90328 7.85974 5.12105 8.0044 4.27453 8.0044H2.87615V11.9745H-0.000957442ZM2.87615 5.73807H4.12987C4.82638 5.73807 5.34608 5.5827 5.68897 5.27195C6.03187 4.95048 6.20332 4.49507 6.20332 3.90572C6.20332 3.30565 6.0158 2.88775 5.64075 2.65201C5.27643 2.40555 4.74601 2.28232 4.0495 2.28232H2.87615V5.73807Z" fill="black"/>
</svg>
