<svg width="23" height="23" viewBox="0 0 23 23" fill="none" xmlns="http://www.w3.org/2000/svg">
<path d="M14.1495 21.6265C14.1892 21.7255 14.2583 21.8099 14.3474 21.8685C14.4365 21.9271 14.5413 21.9571 14.648 21.9543C14.7546 21.9516 14.8578 21.9163 14.9438 21.8532C15.0298 21.7902 15.0944 21.7023 15.129 21.6014L21.9237 1.73996C21.9571 1.64734 21.9635 1.5471 21.9421 1.45098C21.9207 1.35486 21.8723 1.26684 21.8027 1.1972C21.733 1.12756 21.645 1.0792 21.5489 1.05777C21.4528 1.03633 21.3525 1.04272 21.2599 1.07617L1.39846 7.87087C1.29758 7.90547 1.2097 7.9701 1.14661 8.05608C1.08352 8.14206 1.04824 8.24528 1.04551 8.3519C1.04278 8.45851 1.07273 8.5634 1.13133 8.6525C1.18994 8.7416 1.2744 8.81064 1.37337 8.85036L9.66291 12.1745C9.92496 12.2795 10.1631 12.4363 10.3628 12.6358C10.5626 12.8352 10.7199 13.073 10.8253 13.3349L14.1495 21.6265Z" stroke="black" stroke-width="2" stroke-linecap="round" stroke-linejoin="round"/>
</svg>
