<?xml version="1.0" encoding="UTF-8"?>
<svg width="18" height="18" viewBox="0 0 18 18" fill="none" xmlns="http://www.w3.org/2000/svg">
  <path fill-rule="evenodd" clip-rule="evenodd" d="M3 4.5C2.17157 4.5 1.5 5.17157 1.5 6V12C1.5 12.8284 2.17157 13.5 3 13.5H15C15.8284 13.5 16.5 12.8284 16.5 12V6C16.5 5.17157 15.8284 4.5 15 4.5H3ZM9 11.25C10.2426 11.25 11.25 10.2426 11.25 9C11.25 7.75736 10.2426 6.75 9 6.75C7.75736 6.75 6.75 7.75736 6.75 9C6.75 10.2426 7.75736 11.25 9 11.25ZM13.5 6.75V11.25H14.25V6.75H13.5ZM4.5 6.75V11.25H3.75V6.75H4.5Z" fill="#1A1A1A"/>
</svg> 